<svg width="155" height="151" viewBox="0 0 155 151" fill="none" xmlns="http://www.w3.org/2000/svg">
<rect x="92.5" y="92.5" width="46" height="45" stroke="white"/>
<rect x="109.5" y="105.5" width="45" height="45" stroke="#7177FC"/>
<rect x="100.5" y="98.5" width="45" height="45" stroke="#FC7171"/>
<rect x="0.5" y="92.5" width="46" height="45" stroke="white"/>
<rect x="17.5" y="105.5" width="45" height="45" stroke="#7177FC"/>
<rect x="8.5" y="98.5" width="45" height="45" stroke="#FC7171"/>
<rect x="0.5" y="0.5" width="46" height="45" stroke="white"/>
<rect x="17.5" y="13.5" width="45" height="45" stroke="#7177FC"/>
<rect x="8.5" y="6.5" width="45" height="45" stroke="#FC7171"/>
<rect x="0.5" y="46.5" width="46" height="45" stroke="white"/>
<rect x="17.5" y="59.5" width="45" height="45" stroke="#7177FC"/>
<rect x="8.5" y="52.5" width="45" height="45" stroke="#FC7171"/>
<rect x="46.5" y="92.5" width="46" height="45" stroke="white"/>
<rect x="63.5" y="105.5" width="45" height="45" stroke="#7177FC"/>
<rect x="54.5" y="98.5" width="45" height="45" stroke="#FC7171"/>
<rect x="46.5" y="46.5" width="46" height="45" stroke="white"/>
<rect x="63.5" y="59.5" width="45" height="45" stroke="#7177FC"/>
<rect x="54.5" y="52.5" width="45" height="45" stroke="#FC7171"/>
</svg>
