<svg width="237" height="255" viewBox="0 0 237 255" fill="none" xmlns="http://www.w3.org/2000/svg">
<rect x="-0.5" y="0.5" width="46" height="45" transform="matrix(-1 0 0 1 206.918 102)" stroke="white"/>
<rect x="-0.5" y="0.5" width="45" height="45" transform="matrix(-1 0 0 1 189.918 115)" stroke="#7177FC"/>
<rect x="-0.5" y="0.5" width="45" height="45" transform="matrix(-1 0 0 1 198.918 108)" stroke="#FC7171"/>
<rect x="-0.131373" y="0.694796" width="46" height="45" transform="matrix(-0.826169 0.563423 0.563423 0.826169 151.044 139.195)" stroke="white"/>
<rect x="-0.131373" y="0.694796" width="45" height="45" transform="matrix(-0.826169 0.563423 0.563423 0.826169 144.324 159.513)" stroke="#7177FC"/>
<rect x="-0.131373" y="0.694796" width="45" height="45" transform="matrix(-0.826169 0.563423 0.563423 0.826169 147.816 148.659)" stroke="#FC7171"/>
<rect x="-0.5" y="0.5" width="46" height="45" transform="matrix(-1 0 0 1 235.918 161)" stroke="white"/>
<rect x="-0.5" y="0.5" width="45" height="45" transform="matrix(-1 0 0 1 218.918 174)" stroke="#7177FC"/>
<rect x="-0.5" y="0.5" width="45" height="45" transform="matrix(-1 0 0 1 227.918 167)" stroke="#FC7171"/>
<rect x="-0.64844" y="0.282003" width="46" height="45" transform="matrix(-0.930443 -0.366437 -0.366437 0.930443 159.77 101.868)" stroke="white"/>
<rect x="-0.64844" y="0.282003" width="45" height="45" transform="matrix(-0.930443 -0.366437 -0.366437 0.930443 139.188 107.734)" stroke="#7177FC"/>
<rect x="-0.64844" y="0.282003" width="45" height="45" transform="matrix(-0.930443 -0.366437 -0.366437 0.930443 150.127 104.519)" stroke="#FC7171"/>
<rect x="-0.5" y="0.5" width="46" height="45" transform="matrix(-1 0 0 1 188.918 43)" stroke="white"/>
<rect x="-0.5" y="0.5" width="45" height="45" transform="matrix(-1 0 0 1 171.918 56)" stroke="#7177FC"/>
<rect x="-0.5" y="0.5" width="45" height="45" transform="matrix(-1 0 0 1 180.918 49)" stroke="#FC7171"/>
<rect x="-0.706557" y="0.0278881" width="46" height="45" transform="matrix(-0.734445 -0.678668 -0.678668 0.734445 141.711 42.284)" stroke="white"/>
<rect x="-0.706557" y="0.0278881" width="45" height="45" transform="matrix(-0.734445 -0.678668 -0.678668 0.734445 120.403 40.2944)" stroke="#7177FC"/>
<rect x="-0.706557" y="0.0278881" width="45" height="45" transform="matrix(-0.734445 -0.678668 -0.678668 0.734445 131.764 41.2613)" stroke="#FC7171"/>
<rect x="-0.655288" y="0.265701" width="46" height="45" transform="matrix(-0.92099 -0.389587 -0.389587 0.92099 128.763 73.3096)" stroke="white"/>
<rect x="-0.655288" y="0.265701" width="45" height="45" transform="matrix(-0.92099 -0.389587 -0.389587 0.92099 108.041 78.6596)" stroke="#7177FC"/>
<rect x="-0.655288" y="0.265701" width="45" height="45" transform="matrix(-0.92099 -0.389587 -0.389587 0.92099 119.058 75.7189)" stroke="#FC7171"/>
<rect x="-0.656495" y="0.262707" width="46" height="45" transform="matrix(-0.919201 -0.393788 -0.393788 0.919201 136.761 147.571)" stroke="white"/>
<rect x="-0.656495" y="0.262707" width="45" height="45" transform="matrix(-0.919201 -0.393788 -0.393788 0.919201 116.015 152.827)" stroke="#7177FC"/>
<rect x="-0.656495" y="0.262707" width="45" height="45" transform="matrix(-0.919201 -0.393788 -0.393788 0.919201 127.045 149.936)" stroke="#FC7171"/>
<rect x="-0.665046" y="0.240238" width="46" height="45" transform="matrix(-0.905284 -0.424808 -0.424808 0.905284 125.753 200.503)" stroke="white"/>
<rect x="-0.665046" y="0.240238" width="45" height="45" transform="matrix(-0.905284 -0.424808 -0.424808 0.905284 104.841 205.05)" stroke="#7177FC"/>
<rect x="-0.665046" y="0.240238" width="45" height="45" transform="matrix(-0.905284 -0.424808 -0.424808 0.905284 115.962 202.536)" stroke="#FC7171"/>
<rect x="-0.665046" y="0.240238" width="46" height="45" transform="matrix(-0.905284 -0.424808 -0.424808 0.905284 125.753 200.503)" stroke="white"/>
<rect x="-0.665046" y="0.240238" width="45" height="45" transform="matrix(-0.905284 -0.424808 -0.424808 0.905284 104.841 205.05)" stroke="#7177FC"/>
<rect x="-0.665046" y="0.240238" width="45" height="45" transform="matrix(-0.905284 -0.424808 -0.424808 0.905284 115.962 202.536)" stroke="#FC7171"/>
<rect x="-0.699358" y="0.104394" width="46" height="45" transform="matrix(-0.803752 -0.594964 -0.594964 0.803752 96.7186 130.087)" stroke="white"/>
<rect x="-0.699358" y="0.104394" width="45" height="45" transform="matrix(-0.803752 -0.594964 -0.594964 0.803752 75.3202 130.422)" stroke="#7177FC"/>
<rect x="-0.699358" y="0.104394" width="45" height="45" transform="matrix(-0.803752 -0.594964 -0.594964 0.803752 86.7186 130.15)" stroke="#FC7171"/>
<rect x="-0.699358" y="0.104394" width="46" height="45" transform="matrix(-0.803752 -0.594964 -0.594964 0.803752 96.7186 130.087)" stroke="white"/>
<rect x="-0.699358" y="0.104394" width="45" height="45" transform="matrix(-0.803752 -0.594964 -0.594964 0.803752 75.3202 130.422)" stroke="#7177FC"/>
<rect x="-0.699358" y="0.104394" width="45" height="45" transform="matrix(-0.803752 -0.594964 -0.594964 0.803752 86.7186 130.15)" stroke="#FC7171"/>
<rect x="-0.665046" y="0.240238" width="46" height="45" transform="matrix(-0.905284 -0.424808 -0.424808 0.905284 80.9316 50.8679)" stroke="white"/>
<rect x="-0.665046" y="0.240238" width="45" height="45" transform="matrix(-0.905284 -0.424808 -0.424808 0.905284 60.0195 55.4148)" stroke="#7177FC"/>
<rect x="-0.665046" y="0.240238" width="45" height="45" transform="matrix(-0.905284 -0.424808 -0.424808 0.905284 71.1406 52.9011)" stroke="#FC7171"/>
<rect x="-0.665046" y="0.240238" width="46" height="45" transform="matrix(-0.905284 -0.424808 -0.424808 0.905284 80.9316 50.8679)" stroke="white"/>
<rect x="-0.665046" y="0.240238" width="45" height="45" transform="matrix(-0.905284 -0.424808 -0.424808 0.905284 60.0195 55.4148)" stroke="#7177FC"/>
<rect x="-0.665046" y="0.240238" width="45" height="45" transform="matrix(-0.905284 -0.424808 -0.424808 0.905284 71.1406 52.9011)" stroke="#FC7171"/>
</svg>
