<svg width="128" height="40" viewBox="0 0 128 40" fill="none" xmlns="http://www.w3.org/2000/svg">
<path d="M4.86511 27.9943L17.8195 3.23555L30.7738 27.9943H4.86511Z" stroke="white" stroke-width="3"/>
<path d="M4.03919 28.4943L17.8195 2.15703L31.5997 28.4943H4.03919Z" stroke="#FC7171" stroke-width="2"/>
<path d="M3.21327 28.9943L17.8195 1.07852L32.4256 28.9943H3.21327Z" stroke="#7177FC"/>
<path d="M35.8651 27.9943L48.8195 3.23555L61.7738 27.9943H35.8651Z" stroke="white" stroke-width="3"/>
<path d="M35.0392 28.4943L48.8195 2.15703L62.5997 28.4943H35.0392Z" stroke="#FC7171" stroke-width="2"/>
<path d="M34.2133 28.9943L48.8195 1.07852L63.4256 28.9943H34.2133Z" stroke="#7177FC"/>
<path d="M66.8651 27.9943L79.8195 3.23555L92.7738 27.9943H66.8651Z" stroke="white" stroke-width="3"/>
<path d="M66.0392 28.4943L79.8195 2.15703L93.5997 28.4943H66.0392Z" stroke="#FC7171" stroke-width="2"/>
<path d="M65.2133 28.9943L79.8195 1.07852L94.4256 28.9943H65.2133Z" stroke="#7177FC"/>
<path d="M96.8651 27.9943L109.819 3.23555L122.774 27.9943H96.8651Z" stroke="white" stroke-width="3"/>
<path d="M96.0392 28.4943L109.819 2.15703L123.6 28.4943H96.0392Z" stroke="#FC7171" stroke-width="2"/>
<path d="M95.2133 28.9943L109.819 1.07852L124.426 28.9943H95.2133Z" stroke="#7177FC"/>
</svg>
